<svg xmlns="http://www.w3.org/2000/svg" viewBox="0 0 568 568" width="568" height="568"><title>Meine Spielzeugkiste</title><path fill="#E8655B" d="M294.7 160.6s-2.5 22.6 7 24.3c9.4 1.7 23.4 1.8 25.6-5.6 2.8-9.7 1-21.3-6.5-23.4-6.9-1.9-22.8-6.5-26.1 4.7zm120.8-9.2s-37.7.1-57.3.1c-11.8 0-17.9-1-17.5 12 .4 13.1.8 71.9.2 84.7-.5 10.5-1.2 23.9 14.4 23.6 15.6-.2 52 1 61.9-.1 9-.9 8.5-11.9 7.4-20.8-1.2-9.1-1.2-11.2-21.1-9.5-6.5.6-24.2 2.8-28.4-1.6-3.6-3.8-3.6-13.9 3.5-14.8 10-1.3 9.9-.6 17.7-1.1 8.7-.6 13.4.4 13.5-8.6.1-6.2-.5-15.2-8.8-15.6-8.3-.4-21.8 3.3-25.2-4.1-2.2-4.9-1-9 1.7-12.3 5.5-7.5 29.6-3 34.6-3.2 10-.4 10.3-7.6 10.3-14.7 0-5.7.7-13.5-6.9-14zm-88.4 50.9c-.9-10.5-14.5-11.5-19.9-10.2-5.4 1.3-7.6 2.5-9.4 9.1-1.8 6.6-1.3 53.5-1.6 63.6-.3 10.1 1.6 18.5 12 17.9 10.4-.5 16.5 2.9 19.1-13 2.6-15.9.8-56.2-.2-67.4zm-68.8-50.8c-19.5-5.2-58.5-4.1-59 13-1.4 43.2.1 103.9.1 103.9.7 8.3 4.1 11.6 14.6 10.3 6.3-.8 11.6-3.7 13.3-16.9 1.3-9.8 7-12.8 13-13 13.1-.4 22.2-2.3 30.8-8.2 12.7-8.7 17.1-19 16.4-44.8-.5-24.5-9.6-39.1-29.2-44.3zm-1.7 53.3c-1.5 8.1-7.7 11.5-14.3 13-6.4 1.5-18.4 1.5-19.3-18.4-1-23.2 13.7-22.3 18.1-22 7.8.6 12.2 5.9 13.8 9.7 2.4 5.9 3 10.5 1.7 17.7zm-78.2-49.1c-6.9-3.2-15.3-5.2-29.2-5.2-13.9 0-31.9.8-40.9 5.8-9 5.1-18.6 14.3-19.6 29.8-.9 14.3-1 28.7 10.4 37.6 11.4 8.9 28.5 10.9 38.4 11.7 15 1.2 19.2 9.6 16.5 15.2-2 4.1-9.7 5.2-24 3.8-12.7-1.3-24.4-5.8-28.4-6.7-6.7-1.5-10.3-1.3-11.8 4.4-3.4 13.2-5.1 24.8 2 29.7 11.4 7.8 31.6 9.7 56.6 6.6 21.6-2.6 33.5-11.1 36.8-20.1 3.1-8.5 6.2-17.5 3.5-37-2.2-15.8-7.7-23-19.6-26.4-10.9-3.1-29.2-.7-30.8-12.6-1.5-11.1 13.6-12.8 25.6-13.2 12-.3 18.7 1.3 20.2-5.1 1.6-6.5 2.1-14.6-5.7-18.3zm253.4 5.6c.2-11.8 5.5-9.6 15-9.4 10.1.2 23.5-2.3 23.9 5.2.8 18.9-.3 63.2.8 71.4 1.1 8.2 4.2 8.2 15 6.9 5.4-.7 7.7 1.5 8.4 14.2.7 12.7.9 21-6.8 21.5-9.4.6-20.1 1.2-31.6 1-11.5-.1-21.3-1.1-22.2-17.6-.8-14.9-2.8-73.5-2.5-93.2z"/><path fill="#5CB6AF" d="M203.6 437.8s-6 16.6 3.4 20.2c9.1 3.5 25.8 4.1 27.9-2.3 4-11.9 2.4-21.1-6.2-22.6-8.1-1.6-21.2-3.5-25.1 4.7zM87.7 463.5c-.1-8-1.8-18.1 5.9-18.4 8.3-.3 12.3-.7 23.1-.5 11.7.3 17.7-.6 17.7 7.2-.1 24.5.2 35.1.2 35.1s-.5 10.5 7.3 2.5c6.3-6.5 5.4-21.9 5.9-27 .4-5.1-1.3-18.2 8.5-18.9 10.7-.7 26.3-1.3 33.2-1 5 .2 6.6 6.6 2.5 20.7-1.9 6.6-7.7 21.5-18.2 34-6.9 8.2-10.3 11.4-13 14.4-2.7 3 .6 5.1 3.8 8.5 3.8 4 15.9 14.6 21.4 20.2 6.8 7.1 5.8 12.3 4.7 15.2-2 5.2-10.8 3.7-33.6 4-17.1.2-15.2-4.8-18-13.6-1.8-5.6-2.1-8.1-5.3-11.9-3.1-3.7-6.9-1.8-7.1 3.3-.2 6.3-.2 9.3-.5 13.1-.5 5.6-.8 9.3-8.8 9.2-8-.1-9.5.1-17.1.1-12.7 0-13.3-3.4-13.2-15.6.2-20.6.7-60.6.6-80.6zm113.9 14.2c-.4 3.5-2.1 51.1-1.4 57.3.7 6.2-.8 23.8 6.6 24.6 6.8.8 20.3 1.2 24.1-.7 5.8-2.9 4.7-7.6 5.3-16.6.7-10.4-1-48.4-1.4-58.5-.4-10-2.3-14.1-7.8-15.7-6-1.7-23.7-3.2-25.4 9.6zM305.8 427c-6.4-1.3-22-4.5-41.4 2.5-10.3 3.7-17.5 16.3-18.6 39.3 0 9.7-.3 43.6 39.9 41.8 8.5.4 29.5-3.9 28.6 7.2-1.3 5.6-8.1 5.4-16.8 5.7-10.6.3-29.8-2.5-38.1-4.9-5.5-1.6-12.3-.4-13.4 7.2-.8 5.6-1.4 8.5-.7 17.3.6 8.9 4.7 15.6 9.8 16.5 10.3 1.8 56.6 2.3 67.9.6 16.3-2.5 22.1-9.1 22.8-30.8.7-19.3 1.3-26.5-2.6-38.5-3.9-12.1-11.7-13.3-19.5-16.6-7.8-3.2-20.9-1.6-29.4-1.6s-12.4-5.6-11.1-9.7c1.3-4 5.7-5.5 14.2-3.9s15.9 2.8 20-2c4.3-5.1 6.5-15 3.9-21.4-2.6-6.2-8.7-7.3-15.5-8.7zm168.3 10.5c-4.9-.2-16.8-2.1-28.6 4.6-3.3 1.8-7.9 11.3-8.6 16.4-1.2 10.2-10.4 11.4-13 14.8-8.5 9-5.5 53.8-4.8 70.9.2 10.7 1.5 16.5 11.6 16.3 14.5 0 47.4-.7 54.1-.8 11.7-.3 9.2-14.7 9.4-22.6.2-8.6-.7-16.6-7.5-16.6-7.2 0-9.9 1-15.6.7-8.6-.4-10.9-2.4-12.1-5.8-.5-1.5-.5-5.2 2.8-6.6 6.5-2.9 19.6-1.3 22.5-1.4 7.7-.3 7.7-12.5 6.8-18.2-.7-4.3-1.6-7.3-8.1-7.7-7.8-.5-9.4-.1-13.3-.9-4.4-.9-4.9-4.7-3.6-8.7 1.9-5.8 12.5-3.8 19-4.7 3-.4 4.5-3.2 4.9-7.6.8-9.4 2.6-21.3-15.9-22.1zm-75-7.9c-10.2.4-47.5 3-56.2 5.3-13.2 3.1-11 23.6-5.8 29.8 2.7 3.2 5.1 7.2 11.6 5.8 6.5-1.4 11.6-2.9 12.3.7s.7 8 .7 13.7c0 3.9.8 35.6-.1 56.4-.6 13.8 3.1 18.2 7.7 18.7 8.8.5 20.8-.1 27.7-.1 10.3 0 7.4-14.3 7.4-23.7 0-9.4-1.4-41.9-1.4-48.5 0-6.5-1.5-21.7 1.4-23.1 2.9-1.4 9.1-.4 13.5-1.8s6.9-4.4 7.6-11.2c1.3-13 4.6-23.2-26.4-22z"/><path fill="#E8655B" d="M48.8 178.2c-.3-2.6-3.4-17.5-17.2-20.3-11.2-3.9-28.1 8.3-29.4 18.8-1.4 11.7 5.1 22.9 16.7 27.7 6.2 2.6 17.5-1.1 22.1-4.2 7.1-4.6 8.3-16.7 7.8-22z"/><path fill="#F4AC37" d="M560.3 159.9c-5.1-9.5-7.3-16.5-12.4-26.1-1.1-2.1-3.8-3.4-6.2-2.7-9.7 2.6-18.6 7.2-27.2 12.4-2.4 1.5-3.9 4.9-2.2 7.6 5.7 8.5 9.2 18 13.2 27.4 1 2.3 3.9 3.2 6.2 2.7 8.8-2.6 19.8-10.5 26.4-14 2.4-1.4 3.9-4.2 2.2-7.3zM109 101.5c2.9-11.4 6.5-16.2 9.4-27.6.7-2.6-.6-5.5-2.9-6.7-9.7-5.1-20.2-8-31-10.1-3-.6-6 1.3-7.3 4.4-4.8 11.4-5.6 14.8-9.3 25.3-.9 2.5.8 5.5 3 6.7 9 4.4 23.2 10.2 31.1 12.2 2.8.7 6-.5 7-4.2z"/><path fill="#E8655B" d="M226.2 25.9c-5.9-.9-12.6-1.8-20.9 2.8-7.7 4.2-13.5 11-13.3 20.1.1 7.6 5.8 14.3 12 18.1 6.5 4 14.6 5.2 21.8 2.6 8.1-2.9 13-10.7 15.7-18.5 3.9-11.1-2.1-23.1-15.3-25.1z"/><path fill="#F4AC37" d="M337.2 70.2c15.1-13.3 17.2-18.3 31.2-32.4 3.1-3.1 2.3-8.8-2.2-10.1-13.2-3.8-25.2-7.9-40.2-8.8-3.3.1-12.2-2-6.4 13.3 2.9 13 5.2 23.1 7.8 34.9 1.1 4.8 6.4 6.1 9.8 3.1z"/><path fill="#E8655B" d="M480.7 62.7c-.4-2.6-1.2-5.3-2.6-7.8-2.5-4.8-8.9-9.2-15.7-10.8-10.1-3.7-23.1 1.8-27 12-3.6 9.5-6 23 11.9 33.8 5.1 5.1 12.2 4.5 18.2 1.6 16.4-7.1 16.7-25.7 15.2-28.8z"/><path fill="#F1AB49" d="M224.4 374.3c-21.7 22.1-22.4 29.4-53.9 19.3-11.8-3.8-21.8-.4-33.7 2.8 23.6-27.7 39-52 59.2-82.2 4.7-7 .2-15.5-10-14.7-27.3 2.2-42-.6-65.6 3.5-12.3 2.1-19.1 11.9-22.4 20.2-6.3 15.7-9.9 25.1-14.7 31.5-12.8 18.8-32.4-58.7-34.5-77.3 11.2-17.3 13-35.6 7.1-35.7-3.9 0-3.1 6-7.2 7.9-3.9 1.9-3.5-8-6.9-12.2-3.8-4.6-6.8-.7-8.4 3.3-1.5 3.8-1.9 6.4-4.3 5.4-4-1.5-5.6-5.4-9.1-4.6-3.4.8-4 6.1-2.6 9.4 1.4 3.3.6 6.9-5.2 3.5-4.1-2.4-9 3.8.7 13.7 4.8 5 9.5 7.6 18.9 11.9 4.9 32.9 22.2 96.8 47.3 97.1 15.5.2 25-19.6 33.7-41.9 7.4-19 21.1-17.6 36.2-17.2 10.4.3 18.9-.5 25.8-.6-28.4 37.2-46.3 62.7-74 93.7-6.6 7.4 1.7 18.8 10.7 13.8 22.9-12.8 31.2-18.9 57.1-11.8 38.8 7.1 47.3-3.5 67.1-32.2l-11.3-6.6z"/><path fill="#F4AC37" d="M559.1 238.7c-4.7 4.1-5.9 1-5.3-2.3.7-4.5-.2-7.7-4-8.2-3.9-.4-4.1 3.7-7.5 5.8-2.1 1.3-2.8-1-4.9-4.2-2.2-3.4-5.6-6.5-8.3-1.6-2.4 4.4-.3 13.4-4.2 12.3-4.1-1.1-3.7-4.4-7.3-3.7-5.2 1-1 12.8 11.7 26 1 34-15.7 66.9-52.3 86.4-2.1-25-2.5-47.4-22.1-59.8-14.3-8-37.3-1.2-43.1 20-4.8 17.5-9 61.5-21.8 62.1-9.4.5-11.2-30.8-14.2-58.5-1.1-10.3-18.4-9-17.3.7 2.7 23.2.9 43.5-5.5 55.5-7.3 13.6-19.9 16.6-29.3 1-9.4-15.6-6.2-39.8-7-54.3-.5-10.1-16.2-9.6-16.5.4-.9 30.7-24.6 94.4-64.7 69.3 16.2-17 33.3-38.6 33.4-62 .1-18.4-21.2-24-35.3-17.3-25.7 12-42.6 57-15.2 89.4 8.7 11.1 56.1 31.9 85.8-28.5 3.5 15 10.3 28.6 24.3 33 17.6 5.6 35-6.8 41.3-25.6 5.2 10.1 10.6 16.2 21.3 15.3 15.3-1.2 23.7-26.4 27.1-41.4 16 22.1 42.5 6.7 44.7-2.7.5 3.8.7 7.1 1 10.6-16.4 8.3-53.5 33.6-35.5 64.1 11.9 18.6 53.3 15.6 51-53.6C547.2 331.6 547 267 547 267c6.9-6.6 10.9-10.9 13.8-15.7 6.6-11.1 1.7-15.6-1.7-12.6zm-319.5 84.2c13.4-5.9 11.6 7.8 7.5 16.4-5.6 11.8-13.6 23.3-22.5 33-6.1-16.4-2.1-41.8 15-49.4zM443 341.8c-10.3 2.9-17.3-10.5-16.4-19.2.8-9.5 6.7-16.9 13.7-17.7 20.1-2.3 21.1 29.6 2.7 36.9zm11.3 63.9c-9.4 7.3-13.1.3-12.3-7.2 2-14.6 18.9-24.6 22.4-26.1.3 5.8-1.3 26-10.1 33.3z"/></svg>